<?xml version="1.0" encoding="iso-8859-1"?>
<!-- Generator: Adobe Illustrator 16.0.0, SVG Export Plug-In . SVG Version: 6.00 Build 0)  -->
<!DOCTYPE svg PUBLIC "-//W3C//DTD SVG 1.1//EN" "http://www.w3.org/Graphics/SVG/1.1/DTD/svg11.dtd">
<svg version="1.1" id="Capa_1" xmlns="http://www.w3.org/2000/svg" xmlns:xlink="http://www.w3.org/1999/xlink" x="0px" y="0px"
	 width="652.8px" height="652.8px" viewBox="0 0 652.8 652.8" style="enable-background:new 0 0 652.8 652.8;" xml:space="preserve"
	>
	<style>
		#hey{fill:#F23054;


		}

	</style>

<g id="hey">
	<g id="user_-_single_add">
		<g>
			<path d="M156.753,367.854C187.231,392.782,224.481,408,265.2,408s77.969-15.218,108.447-40.146
				c27.336,2.162,50.755,17.788,63.893,40.146h44.839c-12.566-35.088-40.759-62.709-76.255-74.705
				C432.398,298.003,448.8,253.368,448.8,204c0-112.689-82.212-204-183.6-204C163.812,0,81.6,91.311,81.6,204
				c0,49.368,16.442,94.044,42.677,129.295C75.888,349.615,40.8,394.903,40.8,448.8V530.4c0,67.605,54.794,122.399,122.4,122.399
				h204V612h-204c-45.084,0-81.6-36.516-81.6-81.6V448.8C81.6,405.92,114.77,371.198,156.753,367.854z M122.4,204
				c0-90.127,63.934-163.2,142.8-163.2C344.066,40.8,408,113.873,408,204c0,90.127-63.934,163.2-142.8,163.2
				C186.333,367.2,122.4,294.127,122.4,204z M591.6,530.4h-61.2v-61.2c0-11.261-9.139-20.4-20.399-20.4s-20.4,9.14-20.4,20.4v61.2
				h-61.2C417.139,530.4,408,539.539,408,550.8c0,11.262,9.139,20.4,20.399,20.4h61.2v61.2c0,11.261,9.14,20.399,20.4,20.399
				s20.399-9.098,20.399-20.399v-61.2h61.2c11.261,0,20.4-9.139,20.4-20.4C612,539.539,602.86,530.4,591.6,530.4z"/>
		</g>
	</g>
</g>
<g>
</g>
<g>
</g>
<g>
</g>
<g>
</g>
<g>
</g>
<g>
</g>
<g>
</g>
<g>
</g>
<g>
</g>
<g>
</g>
<g>
</g>
<g>
</g>
<g>
</g>
<g>
</g>
<g>
</g>
</svg>
