<?xml version="1.0" encoding="iso-8859-1"?>
<!-- Generator: Adobe Illustrator 16.0.0, SVG Export Plug-In . SVG Version: 6.00 Build 0)  -->
<!DOCTYPE svg PUBLIC "-//W3C//DTD SVG 1.1//EN" "http://www.w3.org/Graphics/SVG/1.1/DTD/svg11.dtd">
<svg version="1.1" id="Capa_1" xmlns="http://www.w3.org/2000/svg" xmlns:xlink="http://www.w3.org/1999/xlink" x="0px" y="0px"
	 width="472.251px" height="472.251px" viewBox="0 0 472.251 472.251" style="enable-background:new 0 0 472.251 472.251;"
	 xml:space="preserve">
	<style>
		
		#Settings{fill:#F23054;

		}
	</style>


<g id="Settings">
	<path d="M443.031,137.652L413.73,109.5L259.506,270.021c-3.835,3.998-9.139,6.262-14.681,6.27c-0.007,0-0.021,0-0.027,0
		c-5.535,0-10.833-2.252-14.675-6.229l-80.403-83.28L35.187,307.339c-4.005,4.223-9.397,6.352-14.79,6.352
		c-5.045,0-10.098-1.857-14.049-5.611c-8.167-7.758-8.5-20.672-0.734-28.838l129.2-136c3.829-4.032,9.146-6.331,14.708-6.351
		c0.027,0,0.054,0,0.082,0c5.535,0,10.833,2.251,14.674,6.229l80.485,83.368L384.32,81.239l-29.302-28.152l117.232-33.925
		L443.031,137.652z M20.397,340.89c-4.692,0-9.248-0.68-13.6-1.973v114.172h61.2V312.263l-13.124,13.803
		C45.965,335.519,33.385,340.89,20.397,340.89z M81.597,453.089h61.2V233.518l-61.2,64.396V453.089z M210.593,288.939
		l-54.196-56.101v220.251h61.2V294.921C215.081,293.154,212.769,291.183,210.593,288.939z M244.865,303.49
		c-4.691,0-9.249-0.68-13.668-2.039v151.639h61.201V275.066l-13.26,13.805C270.229,298.119,257.718,303.49,244.865,303.49z
		 M305.998,260.921v192.168h61.199V197.206L305.998,260.921z M414.525,147.974l-33.728,35.088v270.027h61.2V174.358L414.525,147.974
		z"/>
</g>
<g>
</g>
<g>
</g>
<g>
</g>
<g>
</g>
<g>
</g>
<g>
</g>
<g>
</g>
<g>
</g>
<g>
</g>
<g>
</g>
<g>
</g>
<g>
</g>
<g>
</g>
<g>
</g>
<g>
</g>
</svg>
